<svg width="108" height="110" viewBox="0 0 108 110" fill="none" xmlns="http://www.w3.org/2000/svg">
<path d="M54 0C43.3198 0 32.8795 3.21983 23.9992 9.25232C15.119 15.2848 8.19766 23.859 4.11053 33.8907C0.0233974 43.9223 -1.04598 54.9609 1.03762 65.6105C3.12122 76.26 8.26422 86.0423 15.8163 93.7202C23.3683 101.398 32.9902 106.627 43.4651 108.745C53.9401 110.863 64.7977 109.776 74.6649 105.621C84.5321 101.466 92.9658 94.429 98.8994 85.4008C104.833 76.3725 108 65.7582 108 54.9C107.983 40.3448 102.289 26.3905 92.1655 16.0984C82.0421 5.80631 68.3166 0.0168227 54 0ZM79.7182 45.2867L49.2539 74.8483C48.4793 75.5975 47.4511 76.0154 46.3819 76.0154C45.3128 76.0154 44.2845 75.5975 43.5099 74.8483L28.2819 60.0675C27.4863 59.2927 27.0257 58.2286 27.0013 57.1088C26.977 55.989 27.3908 54.9052 28.1518 54.0954C28.9129 53.2856 29.959 52.816 31.0604 52.7898C32.1618 52.7635 33.2284 53.1828 34.0259 53.9556L46.3819 65.9526L73.9742 39.1748C74.7717 38.4021 75.8383 37.9828 76.9396 38.009C78.041 38.0352 79.0871 38.5048 79.8482 39.3146C80.6093 40.1244 81.0231 41.2083 80.9987 42.328C80.9743 43.4478 80.5137 44.5119 79.7182 45.2867Z" fill="#04357E"/>
</svg>
