<svg width="25" height="24" viewBox="0 0 25 24" fill="none" xmlns="http://www.w3.org/2000/svg">
<path d="M24.8285 11.5962C24.8285 5.19125 19.4774 0 12.8762 0C6.27503 0 0.92395 5.19125 0.92395 11.5962C0.92395 17.3828 5.29486 22.1798 11.0085 23.0495V14.9476H7.97438V11.5953H11.0085V9.04121C11.0085 6.13442 12.7935 4.5293 15.5229 4.5293C16.8308 4.5293 18.1984 4.75543 18.1984 4.75543V7.60907H16.6923C15.2081 7.60907 14.7449 8.50295 14.7449 9.42002V11.5962H18.0599L17.53 14.9485H14.7449V23.0504C20.4586 22.1807 24.8295 17.3837 24.8295 11.5962H24.8285Z" fill="white"/>
</svg>
