<svg width="23" height="24" viewBox="0 0 23 24" fill="none" xmlns="http://www.w3.org/2000/svg">
<path d="M19.3269 19.6428H16.0415V14.2942C16.0415 13.0187 16.0165 11.3773 14.3295 11.3773C12.6165 11.3773 12.3549 12.7651 12.3549 14.2V19.6428H9.06942V8.64392H12.2254V10.1432H12.268C12.7089 9.27876 13.7813 8.36635 15.3833 8.36635C18.7122 8.36635 19.3279 10.6426 19.3279 13.6055V19.6428H19.3269ZM5.35875 7.13892C5.10811 7.13904 4.85992 7.08781 4.62836 6.98817C4.3968 6.88852 4.18644 6.7424 4.0093 6.55819C3.83216 6.37397 3.69172 6.15527 3.59603 5.9146C3.50035 5.67393 3.45128 5.41601 3.45164 5.15562C3.45183 4.76355 3.56391 4.38034 3.77372 4.05445C3.98353 3.72856 4.28164 3.47463 4.63036 3.32477C4.97907 3.1749 5.36273 3.13584 5.73282 3.21252C6.1029 3.28919 6.44279 3.47816 6.70951 3.75553C6.97622 4.0329 7.15778 4.38621 7.23122 4.77078C7.30466 5.15536 7.26669 5.55392 7.12211 5.91607C6.97753 6.27822 6.73283 6.5877 6.41895 6.80536C6.10507 7.02303 5.73612 7.1391 5.35875 7.13892ZM7.00609 19.6428H3.71141V8.64392H7.00609V19.6428ZM20.9706 0H2.06222C1.1572 0 0.425049 0.743377 0.425049 1.66059V21.3899C0.425049 22.308 1.1572 23.0504 2.06222 23.0504H20.9678C21.8719 23.0504 22.6114 22.308 22.6114 21.3899V1.66059C22.6114 0.743377 21.8719 0 20.9678 0H20.9706Z" fill="white"/>
</svg>
