<svg width="23" height="24" viewBox="0 0 23 24" fill="none" xmlns="http://www.w3.org/2000/svg">
<path d="M14.9408 11.5252C14.9408 12.2547 14.7284 12.9677 14.3304 13.5742C13.9324 14.1807 13.3667 14.6534 12.7049 14.9326C12.0431 15.2117 11.3148 15.2847 10.6122 15.1424C9.90959 15.0001 9.26421 14.6489 8.75766 14.1331C8.25111 13.6173 7.90614 12.9601 7.76639 12.2447C7.62663 11.5293 7.69836 10.7878 7.9725 10.1139C8.24664 9.43995 8.71089 8.86395 9.30653 8.4587C9.90216 8.05345 10.6024 7.83715 11.3188 7.83715C12.2791 7.83827 13.1997 8.22719 13.8788 8.9186C14.5578 9.61 14.9397 10.5474 14.9408 11.5252ZM22.6376 6.45412V16.5963C22.6357 18.3075 21.9673 19.948 20.779 21.1579C19.5907 22.3679 17.9796 23.0485 16.2991 23.0504H6.33853C4.65804 23.0485 3.04691 22.3679 1.85862 21.1579C0.670323 19.948 0.00190323 18.3075 0 16.5963V6.45412C0.00190323 4.74298 0.670323 3.10247 1.85862 1.89251C3.04691 0.682547 4.65804 0.00193794 6.33853 0H16.2991C17.9796 0.00193794 19.5907 0.682547 20.779 1.89251C21.9673 3.10247 22.6357 4.74298 22.6376 6.45412ZM16.7518 11.5252C16.7518 10.4311 16.4332 9.3615 15.8362 8.45175C15.2392 7.542 14.3907 6.83293 13.3979 6.41422C12.4052 5.99551 11.3128 5.88596 10.2589 6.09941C9.20498 6.31287 8.2369 6.83975 7.47708 7.61343C6.71726 8.38711 6.19981 9.37284 5.99018 10.446C5.78054 11.5191 5.88813 12.6314 6.29935 13.6423C6.71056 14.6531 7.40693 15.5171 8.30038 16.125C9.19384 16.7329 10.2443 17.0573 11.3188 17.0573C12.7592 17.0557 14.1402 16.4723 15.1587 15.4352C16.1773 14.3981 16.7502 12.9919 16.7518 11.5252ZM18.5629 5.53211C18.5629 5.25857 18.4832 4.99118 18.3339 4.76374C18.1847 4.5363 17.9726 4.35903 17.7244 4.25436C17.4762 4.14968 17.2031 4.12229 16.9396 4.17565C16.6761 4.22902 16.4341 4.36074 16.2442 4.55416C16.0542 4.74758 15.9248 4.99401 15.8724 5.26229C15.82 5.53057 15.8469 5.80865 15.9497 6.06137C16.0525 6.31408 16.2266 6.53008 16.45 6.68205C16.6734 6.83402 16.936 6.91513 17.2046 6.91513C17.5648 6.91513 17.9103 6.76942 18.165 6.51005C18.4198 6.25069 18.5629 5.89891 18.5629 5.53211Z" fill="white"/>
</svg>
